<?xml version="1.0" encoding="UTF-8" standalone="no"?>
<!-- Created with Inkscape (http://www.inkscape.org/) -->

<svg
   width="18.885078mm"
   height="10.036652mm"
   viewBox="0 0 66.915632 35.562939"
   id="svg3457"
   version="1.1"
   inkscape:version="1.1 (c68e22c387, 2021-05-23)"
   sodipodi:docname="signature.svg"
   xmlns:inkscape="http://www.inkscape.org/namespaces/inkscape"
   xmlns:sodipodi="http://sodipodi.sourceforge.net/DTD/sodipodi-0.dtd"
   xmlns="http://www.w3.org/2000/svg"
   xmlns:svg="http://www.w3.org/2000/svg"
   xmlns:rdf="http://www.w3.org/1999/02/22-rdf-syntax-ns#"
   xmlns:cc="http://creativecommons.org/ns#"
   xmlns:dc="http://purl.org/dc/elements/1.1/">
  <defs
     id="defs3459" />
  <sodipodi:namedview
     id="base"
     pagecolor="#ffffff"
     bordercolor="#666666"
     borderopacity="1.0"
     inkscape:pageopacity="0.0"
     inkscape:pageshadow="2"
     inkscape:zoom="3.959798"
     inkscape:cx="128.41564"
     inkscape:cy="79.675782"
     inkscape:document-units="px"
     inkscape:current-layer="g3406"
     showgrid="false"
     inkscape:window-width="1920"
     inkscape:window-height="1017"
     inkscape:window-x="-8"
     inkscape:window-y="-8"
     inkscape:window-maximized="1"
     inkscape:pagecheckerboard="0"
     fit-margin-top="0"
     fit-margin-left="0"
     fit-margin-right="0"
     fit-margin-bottom="0" />
  <metadata
     id="metadata3462">
    <rdf:RDF>
      <cc:Work
         rdf:about="">
        <dc:format>image/svg+xml</dc:format>
        <dc:type
           rdf:resource="http://purl.org/dc/dcmitype/StillImage" />
      </cc:Work>
    </rdf:RDF>
  </metadata>
  <g
     inkscape:label="Calque 1"
     inkscape:groupmode="layer"
     id="layer1"
     transform="translate(-8.2226355,-9.546836)">
    <g
       id="g3406"
       transform="translate(142.83469,-131.3115)"
       inkscape:export-xdpi="35"
       inkscape:export-ydpi="35"
       style="fill:#000000;fill-opacity:1">
      <g
         id="g24"
         transform="matrix(0.21889822,0,0,0.21889822,-146.92205,88.550871)">
        <path
           style="fill:#676a6b;fill-opacity:1;fill-rule:nonzero;stroke:none;stroke-width:1px;stroke-linecap:butt;stroke-linejoin:miter;stroke-opacity:1"
           d="m 295.02548,309.84601 c 7.58159,-8.34237 13.28195,-2.93071 8.37773,1.43906 -13.67914,11.03962 -21.98111,39.84118 -11.80175,33.52487 7.38622,-3.78428 33.92264,-36.20634 13.51329,-34.42296 -16.80148,1.675 -0.21983,8.98995 9.57819,4.73778 4.31072,-2.46397 41.01501,-10.20998 26.79686,-2.40562 -11.4367,2.3812 -42.15064,11.0384 -45.95985,6.5958 -7.04164,-11.6553 30.87352,-20.33024 23.30929,-3.91653 -7.59178,14.59641 -20.99345,38.74363 -33.52805,37.14205 -13.39435,-4.68094 1.80901,-34.58241 9.71429,-42.69445 z"
           id="path3399"
           inkscape:connector-curvature="0"
           sodipodi:nodetypes="cccccccccc" />
        <path
           style="fill:#676a6b;fill-opacity:1;fill-rule:nonzero;stroke:none;stroke-width:1px;stroke-linecap:butt;stroke-linejoin:miter;stroke-opacity:1"
           d="m 56.236161,313.81654 c 5.815011,-17.4533 16.832917,-33.86588 30.899995,-45.64233 11.412619,-9.51462 27.068184,-12.87252 26.048874,8.82474 -0.85847,15.42868 -8.47562,40.69594 -18.051317,57.90058 -9.543795,12.66504 -14.767181,20.54129 -24.951762,16.71127 -12.679081,-13.00299 23.348465,-52.51621 32.117069,-59.16008 25.71861,-20.04539 39.11975,-21.67929 35.07426,2.0327 -2.46362,20.45736 -22.00055,60.43299 -33.13177,57.62806 -9.149,-4.41052 6.35792,-32.49264 24.94191,-50.40234 24.8162,-20.98684 31.04579,-13.73304 30.37055,4.72344 -5.05184,20.46823 -7.92302,47.01643 -24.39444,46.37696 -2.63379,-0.62311 -1.19961,-5.74387 6.76151,-15.74238 12.1625,-13.60367 37.4631,-27.41725 32.45845,-22.14872 -6.37956,6.80271 0.0818,2.71891 -6.69844,4.82044 -11.41371,4.69222 -27.65751,28.53133 -20.20264,13.75945 4.8813,-11.0002 10.94272,-45.31325 -4.11134,-38.05338 -20.95888,11.83873 -25.64021,21.85554 -31.70779,32.56967 -12.57678,27.55429 1.93708,9.56754 7.97505,-0.63477 6.19434,-13.14491 5.81782,-6.89413 11.52083,-33.15374 0.13926,-7.8067 3.01147,-15.2372 -12.15287,-8.90145 -7.24503,3.30852 -25.145296,13.29926 -39.944556,37.5885 -16.651044,34.36945 -2.668068,26.50402 15.188893,-4.07508 5.122129,-11.85143 11.608483,-23.62476 12.839593,-36.67076 1.75891,-11.4421 -0.039,-21.43818 -17.637328,-9.37097 -13.602999,7.83246 -24.278935,37.66968 -31.136711,41.81884 l -1.066912,-0.20878 z"
           id="path3362"
           inkscape:connector-curvature="0"
           sodipodi:nodetypes="ccccccccccccccccccccccccccc" />
        <path
           style="fill:#676a6b;fill-opacity:1;fill-rule:nonzero;stroke:none;stroke-width:1px;stroke-linecap:butt;stroke-linejoin:miter;stroke-opacity:1"
           d="m 187.47494,312.18682 c -24.46365,15.93507 -25.59722,38.29726 -19.42706,33.65583 11.75584,-8.52461 17.64754,-23.71884 25.00056,-35.92364 16.50431,-10.03138 0.50798,17.48301 -2.57988,24.28475 -12.95402,29.3236 16.2865,-7.49205 35.655,-40.16215 7.51128,-16.17728 16.07107,-32.95219 22.79291,-49.48626 10.72651,-7.9617 4.68957,10.27649 0.20696,14.28568 -9.80888,17.77514 -20.39358,33.39942 -27.84273,51.95661 -14.06016,35.64412 -50.44321,51.00029 -39.9005,32.58429 18.11454,-35.87099 22.56746,-32.98148 -0.83456,-4.20066 -8.13349,10.16286 -31.95525,21.24079 -26.61117,2.0711 4.74333,-14.38085 11.98498,-25.71471 25.03985,-33.02147 9.53224,-4.52077 13.63218,0.29915 8.50062,3.95592 z"
           id="path3364"
           inkscape:connector-curvature="0"
           sodipodi:nodetypes="ccccccccccccc" />
        <g
           id="g3436"
           style="fill:#676a6b;fill-opacity:1">
          <path
             sodipodi:nodetypes="cccccccccccc"
             inkscape:connector-curvature="0"
             id="path3366"
             d="m 219.17847,314.86515 c -14.03833,30.68316 -9.62911,41.32887 20.83522,8.01245 15.78743,-20.25678 29.7966,-41.02805 37.10332,-57.21001 10.92735,-25.09795 -5.89014,-16.29414 -11.91139,6.64437 -4.60542,15.35063 -14.88968,46.77936 -18.13004,62.46198 -8.56965,33.71498 38.14448,-40.93182 30.3555,-21.53171 -26.88995,38.18023 -38.22232,48.25135 -38.07625,28.69968 -0.30299,-14.32541 5.69844,-28.68287 8.6696,-42.5431 5.33225,-17.37259 7.95177,-34.07104 16.76272,-50.02536 10.52948,-21.10642 25.68928,-6.28177 18.80295,10.46819 -19.01339,41.07958 -85.03387,128.17283 -75.14348,73.4297 2.80128,-21.92276 15.39825,-29.08929 10.73185,-18.40619 z"
             style="fill:#676a6b;fill-opacity:1;fill-rule:nonzero;stroke:none;stroke-width:1px;stroke-linecap:butt;stroke-linejoin:miter;stroke-opacity:1" />
          <path
             sodipodi:nodetypes="ccccccc"
             inkscape:connector-curvature="0"
             id="path3368"
             d="m 280.88773,301.13593 c 4.47153,-9.07255 -1.3094,-6.85221 -3.77408,0.39014 -2.36826,13.36925 11.88547,10.05358 19.9005,10.38558 4.19569,-0.0904 3.32798,1.70544 3.32798,1.70544 -13.98907,1.43811 0.0499,-0.067 -13.98907,1.43811 -43.9229,3.36129 16.9445,-55.93064 -5.56283,-8.42806 -7.0988,14.94834 -10.24622,12.36927 0.0975,-5.49121 z"
             style="fill:#676a6b;fill-opacity:1;fill-rule:nonzero;stroke:none;stroke-width:1px;stroke-linecap:butt;stroke-linejoin:miter;stroke-opacity:1" />
        </g>
        <path
           style="fill:#676a6b;fill-opacity:1;fill-rule:nonzero;stroke:none;stroke-width:1px;stroke-linecap:butt;stroke-linejoin:miter;stroke-opacity:1"
           d="m 343.40384,314.51383 c -17.11454,8.70143 -19.96889,32.93627 -15.14721,30.00512 25.08441,-16.74698 43.41766,-64.0274 28.03411,-5.97494 -18.7192,62.00965 -122.10299,70.66098 -144.01877,57.70991 -13.42202,-12.60596 50.20036,-29.05139 117.72825,-30.14612 2.73972,-0.59958 29.93392,2.64713 29.93392,2.64713 l -10.78624,4.655 c -64.14496,-10.41053 -161.97822,15.41937 -115.63295,18.18346 20.50858,0.16629 78.35686,-2.16508 100.5977,-27.71505 10.94622,-14.23998 15.81624,-32.1697 19.38122,-51.86015 30.40478,-17.0477 -33.64137,63.23832 -39.27286,31.93217 -1.29401,-9.4745 9.51563,-23.57429 19.19475,-30.35484 13.05047,-8.8458 29.77009,-8.83629 9.98808,0.91831 z"
           id="path3401"
           inkscape:connector-curvature="0"
           sodipodi:nodetypes="ccccccccccccc" />
        <path
           style="fill:#676a6b;fill-opacity:1;fill-rule:nonzero;stroke:none;stroke-width:1px;stroke-linecap:butt;stroke-linejoin:miter;stroke-opacity:1"
           d="m 228.83607,271.95485 c 5.92614,4.94586 28.50605,-4.84275 23.48607,6.21963 -10.18825,4.68965 -26.95367,3.73433 -34.64122,-0.47128 1.51303,-4.16764 6.8421,-7.19368 11.15515,-5.74835 z"
           id="path3403"
           inkscape:connector-curvature="0" />
      </g>
    </g>
  </g>
</svg>
